<svg width="24" height="24" viewBox="0 0 24 24" fill="none" xmlns="http://www.w3.org/2000/svg">
<g clip-path="url(#clip0_2867_54334)">
<path d="M0 0H24V24H0" fill="#BD3D44"/>
<path d="M0 2.71875H24H0ZM0 6.42188H24H0ZM0 10.125H24H0ZM0 13.8281H24H0ZM0 17.5312H24H0ZM0 21.2344H24H0Z" fill="black"/>
<path d="M0 2.71875H24M0 6.42188H24M0 10.125H24M0 13.8281H24M0 17.5312H24M0 21.2344H24" stroke="white" stroke-width="1.875"/>
<path d="M0 0H18.2812V12.8906H0V0Z" fill="#192F5D"/>
<path fill-rule="evenodd" clip-rule="evenodd" d="M2.55064 3.4569L1.93541 3.88822L2.14312 3.12065L1.59668 2.63422H2.31041L2.54978 2.00781L2.83047 2.63422H3.43891L2.96085 3.12065L3.14592 3.88822L2.55064 3.4569ZM5.94092 3.4569L5.32569 3.88822L5.53339 3.12065L4.98695 2.63422H5.70068L5.94006 2.00781L6.22075 2.63422H6.82918L6.35112 3.12065L6.5362 3.88822L5.94092 3.4569ZM8.71596 3.88822L9.33119 3.4569L9.92647 3.88822L9.74139 3.12065L10.2195 2.63422H9.61102L9.33033 2.00781L9.09095 2.63422H8.37723L8.92367 3.12065L8.71596 3.88822ZM12.7215 3.4569L12.1062 3.88822L12.3139 3.12065L11.7675 2.63422H12.4812L12.7206 2.00781L13.0013 2.63422H13.6097L13.1317 3.12065L13.3167 3.88822L12.7215 3.4569ZM1.93541 7.27849L2.55064 6.84717L3.14592 7.27849L2.96085 6.51093L3.43891 6.0245H2.83047L2.54978 5.39809L2.31041 6.0245H1.59668L2.14312 6.51093L1.93541 7.27849ZM5.94092 6.84717L5.32569 7.27849L5.53339 6.51093L4.98695 6.0245H5.70068L5.94006 5.39809L6.22075 6.0245H6.82918L6.35112 6.51093L6.5362 7.27849L5.94092 6.84717ZM8.71596 7.27849L9.33119 6.84717L9.92647 7.27849L9.74139 6.51093L10.2195 6.0245H9.61102L9.33033 5.39809L9.09095 6.0245H8.37723L8.92367 6.51093L8.71596 7.27849ZM12.7215 6.84717L12.1062 7.27849L12.3139 6.51093L11.7675 6.0245H12.4812L12.7206 5.39809L13.0013 6.0245H13.6097L13.1317 6.51093L13.3167 7.27849L12.7215 6.84717ZM1.93541 10.6688L2.55064 10.2374L3.14592 10.6688L2.96085 9.9012L3.43891 9.41477H2.83047L2.54978 8.78836L2.31041 9.41477H1.59668L2.14312 9.9012L1.93541 10.6688ZM5.94092 10.2374L5.32569 10.6688L5.53339 9.9012L4.98695 9.41477H5.70068L5.94006 8.78836L6.22075 9.41477H6.82918L6.35112 9.9012L6.5362 10.6688L5.94092 10.2374ZM8.71596 10.6688L9.33119 10.2374L9.92647 10.6688L9.74139 9.9012L10.2195 9.41477H9.61102L9.33033 8.78836L9.09095 9.41477H8.37723L8.92367 9.9012L8.71596 10.6688ZM12.7215 10.2374L12.1062 10.6688L12.3139 9.9012L11.7675 9.41477H12.4812L12.7206 8.78836L13.0013 9.41477H13.6097L13.1317 9.9012L13.3167 10.6688L12.7215 10.2374ZM15.4965 3.88822L16.1117 3.4569L16.707 3.88822L16.5219 3.12065L17 2.63422H16.3916L16.1109 2.00781L15.8715 2.63422H15.1578L15.7042 3.12065L15.4965 3.88822ZM16.1117 6.84717L15.4965 7.27849L15.7042 6.51093L15.1578 6.0245H15.8715L16.1109 5.39809L16.3916 6.0245H17L16.5219 6.51093L16.707 7.27849L16.1117 6.84717ZM15.4965 10.6688L16.1117 10.2374L16.707 10.6688L16.5219 9.9012L17 9.41477H16.3916L16.1109 8.78836L15.8715 9.41477H15.1578L15.7042 9.9012L15.4965 10.6688ZM4.24578 5.15204L3.63055 5.58336L3.83826 4.81579L3.29182 4.32936H4.00554L4.24492 3.70295L4.52561 4.32936H5.13404L4.65598 4.81579L4.84106 5.58336L4.24578 5.15204ZM7.02082 5.58336L7.63605 5.15204L8.23133 5.58336L8.04626 4.81579L8.52432 4.32936H7.91588L7.63519 3.70295L7.39582 4.32936H6.68209L7.22853 4.81579L7.02082 5.58336ZM11.0263 5.15204L10.4111 5.58336L10.6188 4.81579L10.0724 4.32936H10.7861L11.0255 3.70295L11.3062 4.32936H11.9146L11.4365 4.81579L11.6216 5.58336L11.0263 5.15204ZM3.63055 8.97363L4.24578 8.54231L4.84106 8.97363L4.65598 8.20606L5.13404 7.71963H4.52561L4.24492 7.09322L4.00554 7.71963H3.29182L3.83826 8.20606L3.63055 8.97363ZM7.63605 8.54231L7.02082 8.97363L7.22853 8.20606L6.68209 7.71963H7.39582L7.63519 7.09322L7.91588 7.71963H8.52432L8.04626 8.20606L8.23133 8.97363L7.63605 8.54231ZM10.4111 8.97363L11.0263 8.54231L11.6216 8.97363L11.4365 8.20606L11.9146 7.71963H11.3062L11.0255 7.09322L10.7861 7.71963H10.0724L10.6188 8.20606L10.4111 8.97363ZM14.4166 5.15204L13.8014 5.58336L14.0091 4.81579L13.4626 4.32936H14.1764L14.4157 3.70295L14.6964 4.32936H15.3049L14.8268 4.81579L15.0119 5.58336L14.4166 5.15204ZM13.8014 8.97363L14.4166 8.54231L15.0119 8.97363L14.8268 8.20606L15.3049 7.71963H14.6964L14.4157 7.09322L14.1764 7.71963H13.4626L14.0091 8.20606L13.8014 8.97363Z" fill="#F7FCFF"/>
</g>
<defs>
<clipPath id="clip0_2867_54334">
<rect width="24" height="24" fill="white"/>
</clipPath>
</defs>
</svg>
